<svg xmlns="http://www.w3.org/2000/svg" version="1.1" xmlns:xlink="http://www.w3.org/1999/xlink" xmlns:svgjs="http://svgjs.dev/svgjs" width="1500" height="1500" viewBox="0 0 1500 1500"><rect width="1500" height="1500" fill="#1b1e1c"></rect><g transform="matrix(0.6666666666666666,0,0,0.6666666666666666,250.68072626325,409.2761133603239)"><svg viewBox="0 0 362 247" data-background-color="#1b1e1c" preserveAspectRatio="xMidYMid meet" height="1023" width="1500" xmlns="http://www.w3.org/2000/svg" xmlns:xlink="http://www.w3.org/1999/xlink"><g id="tight-bounds" transform="matrix(1,0,0,1,-0.2464229072965054,-0.09999999999999432)"><svg viewBox="0 0 362.492845814593 247.2" height="247.2" width="362.492845814593"><g><svg viewBox="0 0 395.52 269.72268592028564" height="247.2" width="362.492845814593"><g transform="matrix(1,0,0,1,0,200.68697694524582)"><svg viewBox="0 0 395.52 69.03570897503981" height="69.03570897503981" width="395.52"><g id="textblocktransform"><svg viewBox="0 0 395.52 69.03570897503981" height="69.03570897503981" width="395.52" id="textblock"><g><svg viewBox="0 0 395.52 69.03570897503981" height="69.03570897503981" width="395.52"><g transform="matrix(1,0,0,1,0,0)"><svg width="395.52" viewBox="0.85 -37.9 282.41999999999996 49.3" height="69.03570897503981" data-palette-color="#ffffff"><path d="M5.45-32.15L9.45-32.65 9.45-25.15 16.7-25.15 16.7-21.9 9.45-21.9 9.45-8.55Q9.45-6.9 9.53-5.8 9.6-4.7 9.85-4.05 10.1-3.4 10.55-3.13 11-2.85 11.7-2.85L11.7-2.85Q13.6-2.9 16.1-4.25L16.1-4.25 17.3-1.2Q15.65-0.1 14.23 0.28 12.8 0.65 11.4 0.65L11.4 0.65Q8.1 0.65 6.78-1.23 5.45-3.1 5.45-7.45L5.45-7.45 5.45-21.9 0.85-21.9 0.85-25.15 5.45-25.15 5.45-32.15ZM39.45-3.95L40.2-0.6Q39.05-0.25 37.82 0 36.6 0.25 35.12 0.45 33.65 0.65 32.05 0.65L32.05 0.65Q29.55 0.65 27.4-0.05 25.25-0.75 23.65-2.3 22.05-3.85 21.12-6.33 20.2-8.8 20.2-12.4L20.2-12.4Q20.2-15.65 21.1-18.13 22-20.6 23.57-22.28 25.15-23.95 27.27-24.8 29.4-25.65 31.9-25.65L31.9-25.65Q34.35-25.65 36.15-24.7 37.95-23.75 39.12-22.13 40.3-20.5 40.87-18.32 41.45-16.15 41.45-13.75L41.45-13.75 40.7-11.55 24.55-11.55Q24.55-10 24.95-8.45 25.35-6.9 26.32-5.65 27.3-4.4 28.87-3.63 30.45-2.85 32.8-2.85L32.8-2.85Q34.3-2.85 35.55-3.03 36.8-3.2 37.72-3.43 38.65-3.65 39.45-3.95L39.45-3.95ZM24.7-14.75L37.3-14.75Q37.3-15.1 37.15-16.3 37-17.5 36.45-18.8 35.9-20.1 34.75-21.13 33.6-22.15 31.7-22.15L31.7-22.15Q29.6-22.15 28.25-21.28 26.9-20.4 26.1-19.2 25.3-18 25-16.75 24.7-15.5 24.7-14.75L24.7-14.75ZM46.95 0L46.95-20.6Q46.95-22.3 46.65-24.7L46.65-24.7 50.4-25.2 50.95-22.05Q52.3-23.05 53.59-23.8 54.9-24.55 56.4-25.1 57.9-25.65 59.45-25.65L59.45-25.65Q61.95-25.65 63.4-24.78 64.84-23.9 65.55-21.8L65.55-21.8Q67.59-23.25 69.82-24.45 72.05-25.65 74.45-25.65L74.45-25.65Q76.3-25.65 77.59-25.18 78.9-24.7 79.69-23.6 80.5-22.5 80.84-20.7 81.19-18.9 81.19-16.2L81.19-16.2 81.19 0 77.19 0 77.19-15.75Q77.19-17.25 77.15-18.43 77.09-19.6 76.8-20.43 76.5-21.25 75.82-21.7 75.15-22.15 73.9-22.15L73.9-22.15Q72.75-22.15 71.72-21.83 70.7-21.5 69.59-20.9 68.5-20.3 66.2-18.45L66.2-18.45 66.2 0 62.2 0 62.2-15.75Q62.2-17.25 62.15-18.43 62.09-19.6 61.8-20.43 61.5-21.25 60.82-21.7 60.15-22.15 58.9-22.15L58.9-22.15Q57.59-22.15 56.2-21.6 54.8-21.05 53.55-20.3 52.3-19.55 50.95-18.55L50.95-18.55 50.95 0 46.95 0ZM88.29 11.4L88.29-19.35Q88.29-21.15 88.04-24.7L88.04-24.7 91.74-25.2 92.19-22.5Q93.19-23.35 94.27-24.03 95.34-24.7 96.62-25.18 97.89-25.65 99.34-25.65L99.34-25.65Q101.39-25.65 103.22-24.95 105.04-24.25 106.42-22.7 107.79-21.15 108.59-18.68 109.39-16.2 109.39-12.6L109.39-12.6Q109.39-8.95 108.32-6.43 107.24-3.9 105.52-2.33 103.79-0.75 101.62-0.05 99.44 0.65 97.19 0.65L97.19 0.65Q94.79 0.6 92.29 0.05L92.29 0.05 92.29 10.9 88.29 11.4ZM97.19-2.85L97.19-2.85Q99.29-2.85 100.79-3.6 102.29-4.35 103.27-5.68 104.24-7 104.69-8.72 105.14-10.45 105.14-12.4L105.14-12.4Q105.14-14.15 104.82-15.9 104.49-17.65 103.77-19.03 103.04-20.4 101.84-21.28 100.64-22.15 98.89-22.15L98.89-22.15Q97.59-22.15 96.44-21.68 95.29-21.2 94.27-20.53 93.24-19.85 92.29-19L92.29-19 92.29-3.65Q92.84-3.45 93.52-3.28 94.19-3.1 95.12-2.98 96.04-2.85 97.19-2.85ZM114.74-11L114.74-14.7 128.09-14.7 128.09-11 114.74-11ZM151.19-24.85L150.39-21.5Q149.54-21.7 148.04-21.93 146.54-22.15 144.99-22.15L144.99-22.15Q142.74-22.15 141.31-21.25 139.89-20.35 139.09-18.93 138.29-17.5 137.99-15.78 137.69-14.05 137.69-12.4L137.69-12.4Q137.69-9.85 138.34-8.03 138.99-6.2 140.06-5.05 141.14-3.9 142.54-3.38 143.94-2.85 145.49-2.85L145.49-2.85Q146.54-2.85 147.51-2.98 148.49-3.1 149.31-3.28 150.14-3.45 150.89-3.7L150.89-3.7 151.69-0.35Q150.64-0.05 149.74 0.15 148.84 0.35 147.61 0.5 146.39 0.65 144.99 0.65L144.99 0.65Q142.24 0.65 140.09-0.05 137.94-0.75 136.46-2.3 134.99-3.85 134.21-6.35 133.44-8.85 133.44-12.45L133.44-12.45Q133.44-15.95 134.41-18.48 135.39-21 136.99-22.58 138.59-24.15 140.66-24.9 142.74-25.65 144.99-25.65L144.99-25.65Q146.19-25.65 147.31-25.53 148.44-25.4 149.29-25.25L149.29-25.25Q150.29-25.05 151.19-24.85L151.19-24.85ZM156.64 0L156.64-37.45 160.64-37.9 160.64 0 156.64 0ZM185.68-3.95L186.43-0.6Q185.28-0.25 184.06 0 182.83 0.25 181.36 0.45 179.88 0.65 178.28 0.65L178.28 0.65Q175.78 0.65 173.63-0.05 171.48-0.75 169.88-2.3 168.28-3.85 167.36-6.33 166.43-8.8 166.43-12.4L166.43-12.4Q166.43-15.65 167.33-18.13 168.23-20.6 169.81-22.28 171.38-23.95 173.51-24.8 175.63-25.65 178.13-25.65L178.13-25.65Q180.58-25.65 182.38-24.7 184.18-23.75 185.36-22.13 186.53-20.5 187.11-18.32 187.68-16.15 187.68-13.75L187.68-13.75 186.93-11.55 170.78-11.55Q170.78-10 171.18-8.45 171.58-6.9 172.56-5.65 173.53-4.4 175.11-3.63 176.68-2.85 179.03-2.85L179.03-2.85Q180.53-2.85 181.78-3.03 183.03-3.2 183.96-3.43 184.88-3.65 185.68-3.95L185.68-3.95ZM170.93-14.75L183.53-14.75Q183.53-15.1 183.38-16.3 183.23-17.5 182.68-18.8 182.13-20.1 180.98-21.13 179.83-22.15 177.93-22.15L177.93-22.15Q175.83-22.15 174.48-21.28 173.13-20.4 172.33-19.2 171.53-18 171.23-16.75 170.93-15.5 170.93-14.75L170.93-14.75ZM207.13-5.85L207.13-11.55Q206.13-11.5 205.23-11.45 204.33-11.4 203.46-11.33 202.58-11.25 201.88-11.15L201.88-11.15Q198.28-10.7 196.78-9.58 195.28-8.45 195.28-6.35L195.28-6.35Q195.28-4.6 196.36-3.73 197.43-2.85 199.18-2.85L199.18-2.85Q201.58-2.85 203.46-3.68 205.33-4.5 207.13-5.85L207.13-5.85ZM207.58 0.4L207.08-2.35Q204.73-1 202.71-0.18 200.68 0.65 198.33 0.65L198.33 0.65Q194.98 0.65 193.01-0.98 191.03-2.6 191.03-6.35L191.03-6.35Q191.03-8.3 192.03-9.75 193.03-11.2 194.66-12.18 196.28-13.15 198.33-13.7 200.38-14.25 202.53-14.4L202.53-14.4Q203.43-14.5 204.88-14.58 206.33-14.65 207.13-14.7L207.13-14.7Q207.13-16.45 207.03-17.82 206.93-19.2 206.43-20.18 205.93-21.15 204.96-21.65 203.98-22.15 202.18-22.15L202.18-22.15Q200.73-22.15 199.38-21.98 198.03-21.8 196.98-21.6L196.98-21.6Q195.73-21.35 194.68-21.05L194.68-21.05 193.88-24.5Q195.13-24.8 196.58-25.05L196.58-25.05Q197.83-25.3 199.48-25.48 201.13-25.65 203.03-25.65L203.03-25.65Q205.58-25.65 207.16-24.9 208.73-24.15 209.61-22.88 210.48-21.6 210.81-19.98 211.13-18.35 211.13-16.55L211.13-16.55 211.13-4.55Q211.13-3.85 211.16-3.08 211.18-2.3 211.26-1.55 211.33-0.8 211.43 0L211.43 0 207.58 0.4ZM218.23 0L218.23-20.15Q218.28-21.2 217.98-24.7L217.98-24.7 221.68-25.2 222.23-22Q223.73-23 225.2-23.75 226.68-24.5 228.23-25.08 229.78-25.65 231.23-25.65L231.23-25.65Q233.28-25.65 234.65-25.18 236.03-24.7 236.88-23.6 237.73-22.5 238.1-20.7 238.48-18.9 238.48-16.2L238.48-16.2 238.48 0 234.48 0 234.48-15.75Q234.48-17.25 234.43-18.43 234.38-19.6 234-20.43 233.63-21.25 232.85-21.7 232.08-22.15 230.68-22.15L230.68-22.15Q229.38-22.15 227.93-21.58 226.48-21 225.08-20.25 223.68-19.5 222.23-18.5L222.23-18.5 222.23 0 218.23 0ZM263.38-3.95L264.13-0.6Q262.98-0.25 261.75 0 260.53 0.25 259.05 0.45 257.58 0.65 255.98 0.65L255.98 0.65Q253.48 0.65 251.33-0.05 249.18-0.75 247.58-2.3 245.98-3.85 245.05-6.33 244.13-8.8 244.13-12.4L244.13-12.4Q244.13-15.65 245.03-18.13 245.93-20.6 247.5-22.28 249.08-23.95 251.2-24.8 253.33-25.65 255.83-25.65L255.83-25.65Q258.28-25.65 260.08-24.7 261.88-23.75 263.05-22.13 264.23-20.5 264.8-18.32 265.38-16.15 265.38-13.75L265.38-13.75 264.63-11.55 248.48-11.55Q248.48-10 248.88-8.45 249.28-6.9 250.25-5.65 251.23-4.4 252.8-3.63 254.38-2.85 256.73-2.85L256.73-2.85Q258.23-2.85 259.48-3.03 260.73-3.2 261.65-3.43 262.58-3.65 263.38-3.95L263.38-3.95ZM248.63-14.75L261.23-14.75Q261.23-15.1 261.08-16.3 260.93-17.5 260.38-18.8 259.83-20.1 258.68-21.13 257.53-22.15 255.63-22.15L255.63-22.15Q253.53-22.15 252.18-21.28 250.83-20.4 250.03-19.2 249.23-18 248.93-16.75 248.63-15.5 248.63-14.75L248.63-14.75ZM270.87 0L270.87-21.1Q270.87-22.25 270.62-24.7L270.62-24.7 274.32-25.2 274.72-21.55 274.77-21.55Q275.67-22.7 276.52-23.55 277.37-24.4 278.3-25.03 279.22-25.65 280.07-25.65L280.07-25.65Q281.22-25.7 283.27-25.4L283.27-25.4 282.37-21.55Q280.72-21.85 280.07-21.8L280.07-21.8Q279.22-21.8 278.27-21 277.32-20.2 276.62-19.3L276.62-19.3Q275.72-18.2 274.87-16.8L274.87-16.8 274.87 0 270.87 0Z" opacity="1" transform="matrix(1,0,0,1,0,0)" fill="#ffffff" class="wordmark-text-0" data-fill-palette-color="primary" id="text-0"></path></svg></g></svg></g></svg></g></svg></g><g transform="matrix(1,0,0,1,113.71418555936859,0)"><svg viewBox="0 0 168.0916288812628 168.0916288812628" height="168.0916288812628" width="168.0916288812628"><g><svg></svg></g><g id="icon-0"><svg viewBox="0 0 168.0916288812628 168.0916288812628" height="168.0916288812628" width="168.0916288812628"><g><path d="M0 84.046c0-46.417 37.629-84.046 84.046-84.046 46.417 0 84.046 37.629 84.046 84.046 0 46.417-37.629 84.046-84.046 84.046-46.417 0-84.046-37.629-84.046-84.046zM84.046 161.866c42.979 0 77.82-34.841 77.82-77.82 0-42.979-34.841-77.82-77.82-77.82-42.979 0-77.82 34.841-77.82 77.82 0 42.979 34.841 77.82 77.82 77.82z" data-fill-palette-color="accent" fill="#324547" stroke="transparent"></path><ellipse rx="83.20535629622509" ry="83.20535629622509" cx="84.0458144406314" cy="84.0458144406314" fill="#324547" stroke="transparent" stroke-width="0" fill-opacity="1" data-fill-palette-color="accent"></ellipse></g><g transform="matrix(1,0,0,1,35.40865631568927,44.62301565905829)"><svg viewBox="0 0 97.27431624988427 78.84559756314623" height="78.84559756314623" width="97.27431624988427"><g><svg xmlns:x="http://ns.adobe.com/Extensibility/1.0/" xmlns:i="http://ns.adobe.com/AdobeIllustrator/10.0/" xmlns:graph="http://ns.adobe.com/Graphs/1.0/" xmlns="http://www.w3.org/2000/svg" xmlns:xlink="http://www.w3.org/1999/xlink" version="1.1" x="0" y="0" viewBox="3.5 12.3 92.9 75.3" enable-background="new 0 0 100 100" xml:space="preserve" height="78.84559756314623" width="97.27431624988427" class="icon-dxe-0" data-fill-palette-color="quaternary" id="dxe-0"><path d="M10.7 87.6H89.2C93.2 87.6 96.4 84.4 96.4 80.4V19.5C96.4 15.5 93.2 12.3 89.2 12.3H10.7C6.7 12.3 3.5 15.5 3.5 19.5V80.4C3.6 84.4 6.8 87.6 10.7 87.6M89.3 82.6H10.7C9.5 82.6 8.5 81.6 8.5 80.4V34.9H91.4V80.4C91.4 81.7 90.5 82.6 89.3 82.6M10.7 17.4H89.2C90.4 17.4 91.4 18.4 91.4 19.6V30H8.6V19.5C8.6 18.3 9.5 17.4 10.7 17.4M21.9 23.6C21.9 21.9 23.3 20.6 24.9 20.6S27.9 22 27.9 23.6C27.9 25.3 26.5 26.6 24.9 26.6S21.9 25.3 21.9 23.6M31.9 23.6C31.9 21.9 33.3 20.6 34.9 20.6S37.9 22 37.9 23.6C37.9 25.3 36.5 26.6 34.9 26.6S31.9 25.3 31.9 23.6M11.9 23.6C11.9 21.9 13.3 20.6 14.9 20.6 16.6 20.6 17.9 22 17.9 23.6 17.9 25.3 16.5 26.6 14.9 26.6 13.3 26.7 11.9 25.3 11.9 23.6M85.4 74.7C85.4 76.1 84.3 77.2 82.9 77.2H17.1C15.7 77.2 14.6 76.1 14.6 74.7S15.7 72.2 17.1 72.2H82.9C84.3 72.2 85.4 73.4 85.4 74.7M85.4 64.2C85.4 65.6 84.3 66.7 82.9 66.7H34.4C33 66.7 31.9 65.6 31.9 64.2S33 61.7 34.4 61.7H82.9C84.3 61.7 85.4 62.8 85.4 64.2M85.4 53.7C85.4 55.1 84.3 56.2 82.9 56.2H17.1C15.7 56.2 14.6 55.1 14.6 53.7S15.7 51.2 17.1 51.2H82.9C84.3 51.2 85.4 52.3 85.4 53.7M85.4 43.1C85.4 44.5 84.3 45.6 82.9 45.6H50C48.6 45.6 47.5 44.5 47.5 43.1S48.6 40.6 50 40.6H82.9C84.3 40.6 85.4 41.7 85.4 43.1" fill="#ffffff" data-fill-palette-color="quaternary"></path></svg><g></g></g></svg></g></svg></g></svg></g><g></g></svg></g><defs></defs></svg><rect width="362.492845814593" height="247.2" fill="none" stroke="none" visibility="hidden"></rect></g></svg></g></svg>